<?xml version="1.0" standalone="no"?><!DOCTYPE svg PUBLIC "-//W3C//DTD SVG 1.1//EN" "http://www.w3.org/Graphics/SVG/1.1/DTD/svg11.dtd"><svg font-family="&quot;Source Sans Pro&quot;, &quot;Helvetica Neue&quot;, Helvetica" viewBox="0 0 1520 250" version="1.1" xmlns="http://www.w3.org/2000/svg" xmlns:xlink="http://www.w3.org/1999/xlink"><g id="sd-region-group-1_29903"><svg id="sd-position-group-B.1.1.7" y="0"><text x="40" y="44" fill="#000000" text-anchor="end" font-size="21" font-weight="bolder" data-darkreader-inline-fill="" style="--darkreader-inline-fill:#b1b0ad;"/><g><line x1="60" x2="62.57130930847364" y1="39" y2="39" stroke-width="2" stroke="#333" data-darkreader-inline-stroke="" style="--darkreader-inline-stroke:#676158;"/></g><g><rect x="62.58104911646028" y="24" width="207.35077222763323" height="30" rx="5" ry="5" stroke="#ffffff" stroke-opacity="0.8" stroke-width="2" fill="#d8d8d8" data-darkreader-inline-fill="" data-darkreader-inline-stroke="" style="--darkreader-inline-fill:#323536; --darkreader-inline-stroke:#b1b0ad;"/><text x="70.58104911646028" y="39" font-size="16" dominant-baseline="central" fill="#505050" data-darkreader-inline-fill="" style="--darkreader-inline-fill:#8e8a84;">ORF1ab</text></g><g><rect x="270" y="24" width="980" height="30" rx="5" ry="5" stroke="#ffffff" stroke-opacity="0.8" stroke-width="2" fill="#b2df8a" data-darkreader-inline-fill="" data-darkreader-inline-stroke="" style="--darkreader-inline-fill:#485e28; --darkreader-inline-stroke:#b1b0ad;"/><text x="760" y="12" font-size="16" dominant-baseline="central" text-anchor="middle" fill="#33a02c" data-darkreader-inline-fill="" style="--darkreader-inline-fill:#5ea459;">Spike</text></g><g><rect x="282.512077294686" y="36" width="296.9082125603865" height="30" rx="5" ry="5" stroke="#ffffff" stroke-opacity="0.8" stroke-width="2" fill="#a6cee3" data-darkreader-inline-fill="" data-darkreader-inline-stroke="" style="--darkreader-inline-fill:#274352; --darkreader-inline-stroke:#b1b0ad;"/><text x="290.512077294686" y="51" font-size="16" dominant-baseline="central" fill="#1f78b4" data-darkreader-inline-fill="" style="--darkreader-inline-fill:#4d86ad;">NTD</text></g><g><rect x="579.7584541062802" y="36" width="231.98067632850245" height="30" rx="5" ry="5" stroke="#ffffff" stroke-opacity="0.8" stroke-width="2" fill="#fb9a99" data-darkreader-inline-fill="" data-darkreader-inline-stroke="" style="--darkreader-inline-fill:#5e1716; --darkreader-inline-stroke:#b1b0ad;"/><text x="587.7584541062802" y="51" font-size="16" dominant-baseline="central" fill="#e31a1c" data-darkreader-inline-fill="" style="--darkreader-inline-fill:#b13536;">RBD</text></g><g><rect x="712.6570048309178" y="48" width="72.70531400966195" height="30" rx="5" ry="5" stroke="#ffffff" stroke-opacity="0.8" stroke-width="2" fill="#cab2d6" data-darkreader-inline-fill="" data-darkreader-inline-stroke="" style="--darkreader-inline-fill:#413049; --darkreader-inline-stroke:#b1b0ad;"/><text x="720.6570048309178" y="63" font-size="16" dominant-baseline="central" fill="#6a3d9a" data-darkreader-inline-fill="" style="--darkreader-inline-fill:#7b5f9a;">RBM</text></g><g><rect x="812.0772946859904" y="36" width="55.797101449275374" height="30" rx="5" ry="5" stroke="#ffffff" stroke-opacity="0.8" stroke-width="2" fill="#d8d8d8" data-darkreader-inline-fill="" data-darkreader-inline-stroke="" style="--darkreader-inline-fill:#323536; --darkreader-inline-stroke:#b1b0ad;"/><text x="820.0772946859904" y="51" font-size="16" dominant-baseline="central" fill="#505050" data-darkreader-inline-fill="" style="--darkreader-inline-fill:#8e8a84;">SD1</text></g><g><rect x="868.2125603864733" y="36" width="91.64251207729478" height="30" rx="5" ry="5" stroke="#ffffff" stroke-opacity="0.8" stroke-width="2" fill="#d8d8d8" data-darkreader-inline-fill="" data-darkreader-inline-stroke="" style="--darkreader-inline-fill:#323536; --darkreader-inline-stroke:#b1b0ad;"/><text x="876.2125603864733" y="51" font-size="16" dominant-baseline="central" fill="#505050" data-darkreader-inline-fill="" style="--darkreader-inline-fill:#8e8a84;">SD2</text></g><g><rect x="960.1932367149758" y="36" width="9.806763285024203" height="30" rx="5" ry="5" stroke="#ffffff" stroke-opacity="0.8" stroke-width="2" fill="#fdbf6f" data-darkreader-inline-fill="" data-darkreader-inline-stroke="" style="--darkreader-inline-fill:#bf935a; --darkreader-inline-stroke:#b1b0ad;"/><text x="965.0966183574878" y="24" font-size="16" dominant-baseline="central" text-anchor="middle" fill="#ff7f00" data-darkreader-inline-fill="" style="--darkreader-inline-fill:#c17225;">S1/S2</text></g><g><rect x="1250.5109489051094" y="24" width="38.41406768414072" height="30" rx="5" ry="5" stroke="#ffffff" stroke-opacity="0.8" stroke-width="2" fill="#d8d8d8" data-darkreader-inline-fill="" data-darkreader-inline-stroke="" style="--darkreader-inline-fill:#a09d99; --darkreader-inline-stroke:#b1b0ad;"/></g><g><rect x="1290.0862641008625" y="24" width="10.544127405441486" height="30" rx="5" ry="5" stroke="#ffffff" stroke-opacity="0.8" stroke-width="2" fill="#d8d8d8" data-darkreader-inline-fill="" data-darkreader-inline-stroke="" style="--darkreader-inline-fill:#a09d99; --darkreader-inline-stroke:#b1b0ad;"/></g><g><rect x="1302.9993364299935" y="24" width="31.028533510285342" height="30" rx="5" ry="5" stroke="#ffffff" stroke-opacity="0.8" stroke-width="2" fill="#d8d8d8" data-darkreader-inline-fill="" data-darkreader-inline-stroke="" style="--darkreader-inline-fill:#a09d99; --darkreader-inline-stroke:#b1b0ad;"/></g><g><rect x="1334.538818845388" y="24" width="8.593231585932699" height="30" rx="5" ry="5" stroke="#ffffff" stroke-opacity="0.8" stroke-width="2" fill="#d8d8d8" data-darkreader-inline-fill="" data-darkreader-inline-stroke="" style="--darkreader-inline-fill:#a09d99; --darkreader-inline-stroke:#b1b0ad;"/></g><g><rect x="1343.457199734572" y="24" width="16.95421366954224" height="30" rx="5" ry="5" stroke="#ffffff" stroke-opacity="0.8" stroke-width="2" fill="#d8d8d8" data-darkreader-inline-fill="" data-darkreader-inline-stroke="" style="--darkreader-inline-fill:#a09d99; --darkreader-inline-stroke:#b1b0ad;"/></g><g><rect x="1360.2720637027205" y="24" width="6.084936960849518" height="30" rx="5" ry="5" stroke="#ffffff" stroke-opacity="0.8" stroke-width="2" fill="#d8d8d8" data-darkreader-inline-fill="" data-darkreader-inline-stroke="" style="--darkreader-inline-fill:#a09d99; --darkreader-inline-stroke:#b1b0ad;"/></g><g><rect x="1366.6821499668215" y="24" width="16.95421366954224" height="30" rx="5" ry="5" stroke="#ffffff" stroke-opacity="0.8" stroke-width="2" fill="#d8d8d8" data-darkreader-inline-fill="" data-darkreader-inline-stroke="" style="--darkreader-inline-fill:#a09d99; --darkreader-inline-stroke:#b1b0ad;"/></g><g><rect x="1384.3331121433312" y="24" width="58.48042468480435" height="30" rx="5" ry="5" stroke="#ffffff" stroke-opacity="0.8" stroke-width="2" fill="#d8d8d8" data-darkreader-inline-fill="" data-darkreader-inline-stroke="" style="--darkreader-inline-fill:#323536; --darkreader-inline-stroke:#b1b0ad;"/><text x="1392.3331121433312" y="39" font-size="16" dominant-baseline="central" fill="#505050" data-darkreader-inline-fill="" style="--darkreader-inline-fill:#8e8a84;">N</text></g><g><rect x="1443.9747843397477" y="24" width="5.388188453882094" height="30" rx="5" ry="5" stroke="#ffffff" stroke-opacity="0.8" stroke-width="2" fill="#d8d8d8" data-darkreader-inline-fill="" data-darkreader-inline-stroke="" style="--darkreader-inline-fill:#a09d99; --darkreader-inline-stroke:#b1b0ad;"/></g><g><line x1="1449.4094226940942" x2="1460" y1="39" y2="39" stroke-width="2" stroke="#333" data-darkreader-inline-stroke="" style="--darkreader-inline-stroke:#676158;"/></g><g><path d="m 87.80047307638793 21 l 4 4 l 4 -4 m -4 4 v 55 c 0 5 0 5 -5 5 h -17.341867260331156 c -5 0 -5 0 -5 5 v 55" stroke="#e0e0e0" fill="none" stroke-width="1" data-darkreader-inline-stroke="" style="--darkreader-inline-stroke:#a3a19d;"/><text transform="translate(64.45860581605677, 149) rotate(-60)" fill="#a0a0a0" dominant-baseline="central" text-anchor="end" font-family="Arial Narrow" data-darkreader-inline-fill="" style="--darkreader-inline-fill:#88837c;">PLpro:T183I</text></g><g><path d="m 108.45860581605677 21 l 4 4 l 4 -4 m -4 4 v 65 c 0 5 0 5 -5 5 h -14 c -5 0 -5 0 -5 5 v 45" stroke="#e0e0e0" fill="none" stroke-width="1" data-darkreader-inline-stroke="" style="--darkreader-inline-stroke:#a3a19d;"/><text transform="translate(88.45860581605677, 149) rotate(-60)" fill="#a0a0a0" dominant-baseline="central" text-anchor="end" font-family="Arial Narrow" data-darkreader-inline-fill="" style="--darkreader-inline-fill:#88837c;">PLpro:A890D</text></g><g><path d="m 123.711145123139 21 l 4 4 l 4 -4 m -4 4 v 120" stroke="#e0e0e0" fill="none" stroke-width="1" data-darkreader-inline-stroke="" style="--darkreader-inline-stroke:#a3a19d;"/><text transform="translate(127.711145123139, 149) rotate(-60)" fill="#a0a0a0" dominant-baseline="central" text-anchor="end" font-family="Arial Narrow" data-darkreader-inline-fill="" style="--darkreader-inline-fill:#88837c;">PLpro:I1412T</text></g><g><path d="m 165.93321274523447 21 l 4 4 l 4 -4 m -4 4 v 55 c 0 5 0 5 -5 5 h -14 c -5 0 -5 0 -5 5 v 55" stroke="#e0e0e0" fill="none" stroke-width="1" data-darkreader-inline-stroke="" style="--darkreader-inline-stroke:#a3a19d;"/><text transform="translate(145.93321274523447, 149) rotate(-60)" fill="#a0a0a0" dominant-baseline="central" text-anchor="end" font-family="Arial Narrow" data-darkreader-inline-fill="" style="--darkreader-inline-fill:#88837c;">nsp6:S106K</text></g><g><path d="m 165.9624321691944 21 l 4 4 l 4 -4 m -4 4 v 120" stroke="#e0e0e0" fill="none" stroke-width="1" data-darkreader-inline-stroke="" style="--darkreader-inline-stroke:#a3a19d;"/><text transform="translate(169.9624321691944, 149) rotate(-60)" fill="#a0a0a0" dominant-baseline="central" text-anchor="end" font-family="Arial Narrow" data-darkreader-inline-fill="" style="--darkreader-inline-fill:#88837c;">nsp6:Δ107-109</text></g><g><path d="m 196.31167385557256 21 l 4 4 l 4 -4 m -4 4 v 120" stroke="#e0e0e0" fill="none" stroke-width="1" data-darkreader-inline-stroke="" style="--darkreader-inline-stroke:#a3a19d;"/><text transform="translate(200.31167385557256, 149) rotate(-60)" fill="#a0a0a0" dominant-baseline="central" text-anchor="end" font-family="Arial Narrow" data-darkreader-inline-fill="" style="--darkreader-inline-fill:#88837c;">RdRP:P323L</text></g><g><path d="m 334.9855072463768 21 l 4 4 l 4 -4 m -4 4 v 120" stroke="#000000" fill="none" stroke-width="1" data-darkreader-inline-stroke="" style="--darkreader-inline-stroke:#b1b0ad;"/><text transform="translate(338.9855072463768, 149) rotate(-60)" fill="#000000" dominant-baseline="central" text-anchor="end" font-family="Arial Narrow" data-darkreader-inline-fill="" style="--darkreader-inline-fill:#b1b0ad;">Δ69-70</text></g><g><path d="m 411.07246376811594 21 l 4 4 l 4 -4 m -4 4 v 120" stroke="#000000" fill="none" stroke-width="1" data-darkreader-inline-stroke="" style="--darkreader-inline-stroke:#b1b0ad;"/><text transform="translate(415.07246376811594, 149) rotate(-60)" fill="#000000" dominant-baseline="central" text-anchor="end" font-family="Arial Narrow" data-darkreader-inline-fill="" style="--darkreader-inline-fill:#b1b0ad;">Δ144-145</text></g><g><path d="m 773.2463768115941 21 l 4 4 l 4 -4 m -4 4 v 120" stroke="#000000" fill="none" stroke-width="1" data-darkreader-inline-stroke="" style="--darkreader-inline-stroke:#b1b0ad;"/><text transform="translate(777.2463768115941, 149) rotate(-60)" fill="#000000" dominant-baseline="central" text-anchor="end" font-family="Arial Narrow" data-darkreader-inline-fill="" style="--darkreader-inline-fill:#b1b0ad;">N501Y</text></g><g><path d="m 843.2463768115941 21 l 4 4 l 4 -4 m -4 4 v 120" stroke="#000000" fill="none" stroke-width="1" data-darkreader-inline-stroke="" style="--darkreader-inline-stroke:#b1b0ad;"/><text transform="translate(847.2463768115941, 149) rotate(-60)" fill="#000000" dominant-baseline="central" text-anchor="end" font-family="Arial Narrow" data-darkreader-inline-fill="" style="--darkreader-inline-fill:#b1b0ad;">A570D</text></g><g><path d="m 887.8840579710146 21 l 4 4 l 4 -4 m -4 4 v 120" stroke="#000000" fill="none" stroke-width="1" data-darkreader-inline-stroke="" style="--darkreader-inline-stroke:#b1b0ad;"/><text transform="translate(891.8840579710146, 149) rotate(-60)" fill="#000000" dominant-baseline="central" text-anchor="end" font-family="Arial Narrow" data-darkreader-inline-fill="" style="--darkreader-inline-fill:#b1b0ad;">D614G</text></g><g><path d="m 955.8550724637681 21 l 4 4 l 4 -4 m -4 4 v 120" stroke="#000000" fill="none" stroke-width="1" data-darkreader-inline-stroke="" style="--darkreader-inline-stroke:#b1b0ad;"/><text transform="translate(959.8550724637681, 149) rotate(-60)" fill="#000000" dominant-baseline="central" text-anchor="end" font-family="Arial Narrow" data-darkreader-inline-fill="" style="--darkreader-inline-fill:#b1b0ad;">P681H</text></g><g><path d="m 977.84 21 l 4 4 l 4 -4 m -4 4 v 120" stroke="#000000" fill="none" stroke-width="1" data-darkreader-inline-stroke="" style="--darkreader-inline-stroke:#b1b0ad;"/><text transform="translate(981.84, 149) rotate(-60)" fill="#000000" dominant-baseline="central" text-anchor="end" font-family="Arial Narrow" data-darkreader-inline-fill="" style="--darkreader-inline-fill:#b1b0ad;">T716I</text></g><g><path d="m 1105.52 21 l 4 4 l 4 -4 m -4 4 v 120" stroke="#000000" fill="none" stroke-width="1" data-darkreader-inline-stroke="" style="--darkreader-inline-stroke:#b1b0ad;"/><text transform="translate(1109.52, 149) rotate(-60)" fill="#000000" dominant-baseline="central" text-anchor="end" font-family="Arial Narrow" data-darkreader-inline-fill="" style="--darkreader-inline-fill:#b1b0ad;">S982A</text></g><g><path d="m 1170.8000000000002 21 l 4 4 l 4 -4 m -4 4 v 120" stroke="#000000" fill="none" stroke-width="1" data-darkreader-inline-stroke="" style="--darkreader-inline-stroke:#b1b0ad;"/><text transform="translate(1174.8000000000002, 149) rotate(-60)" fill="#000000" dominant-baseline="central" text-anchor="end" font-family="Arial Narrow" data-darkreader-inline-fill="" style="--darkreader-inline-fill:#b1b0ad;">D1118H</text></g><g><path d="m 1366.3052422030523 21 l 4 4 l 4 -4 m -4 4 v 120" stroke="#e0e0e0" fill="none" stroke-width="1" data-darkreader-inline-stroke="" style="--darkreader-inline-stroke:#a3a19d;"/><text transform="translate(1370.3052422030523, 149) rotate(-60)" fill="#a0a0a0" dominant-baseline="central" text-anchor="end" font-family="Arial Narrow" data-darkreader-inline-fill="" style="--darkreader-inline-fill:#88837c;">ORF8:Q27*</text></g><g><path d="m 1369.78898473789 21 l 4 4 l 4 -4 m -4 4 v 105 c 0 5 0 5 5 5 h 14 c 5 0 5 0 5 5 v 5" stroke="#e0e0e0" fill="none" stroke-width="1" data-darkreader-inline-stroke="" style="--darkreader-inline-stroke:#a3a19d;"/><text transform="translate(1397.78898473789, 149) rotate(-60)" fill="#a0a0a0" dominant-baseline="central" text-anchor="end" font-family="Arial Narrow" data-darkreader-inline-fill="" style="--darkreader-inline-fill:#88837c;">ORF8:R52I</text></g><g><path d="m 1372.7153284671533 21 l 4 4 l 4 -4 m -4 4 v 95 c 0 5 0 5 5 5 h 35.07365627073659 c 5 0 5 0 5 5 v 15" stroke="#e0e0e0" fill="none" stroke-width="1" data-darkreader-inline-stroke="" style="--darkreader-inline-stroke:#a3a19d;"/><text transform="translate(1421.78898473789, 149) rotate(-60)" fill="#a0a0a0" dominant-baseline="central" text-anchor="end" font-family="Arial Narrow" data-darkreader-inline-fill="" style="--darkreader-inline-fill:#88837c;">ORF8:Y73C</text></g><g><path d="m 1380.6118115461181 21 l 4 4 l 4 -4 m -4 4 v 85 c 0 5 0 5 5 5 h 51.17717319177177 c 5 0 5 0 5 5 v 25" stroke="#e0e0e0" fill="none" stroke-width="1" data-darkreader-inline-stroke="" style="--darkreader-inline-stroke:#a3a19d;"/><text transform="translate(1445.78898473789, 149) rotate(-60)" fill="#a0a0a0" dominant-baseline="central" text-anchor="end" font-family="Arial Narrow" data-darkreader-inline-fill="" style="--darkreader-inline-fill:#88837c;">N:D3L</text></g><g><path d="m 1408.4817518248176 21 l 4 4 l 4 -4 m -4 4 v 75 c 0 5 0 5 5 5 h 47.30723291307231 c 5 0 5 0 5 5 v 35" stroke="#e0e0e0" fill="none" stroke-width="1" data-darkreader-inline-stroke="" style="--darkreader-inline-stroke:#a3a19d;"/><text transform="translate(1469.78898473789, 149) rotate(-60)" fill="#a0a0a0" dominant-baseline="central" text-anchor="end" font-family="Arial Narrow" data-darkreader-inline-fill="" style="--darkreader-inline-fill:#88837c;">N:R203K</text></g><g><path d="m 1408.621101526211 21 l 4 4 l 4 -4 m -4 4 v 65 c 0 5 0 5 5 5 h 71.16788321167883 c 5 0 5 0 5 5 v 45" stroke="#e0e0e0" fill="none" stroke-width="1" data-darkreader-inline-stroke="" style="--darkreader-inline-stroke:#a3a19d;"/><text transform="translate(1493.78898473789, 149) rotate(-60)" fill="#a0a0a0" dominant-baseline="central" text-anchor="end" font-family="Arial Narrow" data-darkreader-inline-fill="" style="--darkreader-inline-fill:#88837c;">N:G204R</text></g><g><path d="m 1412.9409422694093 21 l 4 4 l 4 -4 m -4 4 v 55 c 0 5 0 5 5 5 h 90.84804246848057 c 5 0 5 0 5 5 v 55" stroke="#e0e0e0" fill="none" stroke-width="1" data-darkreader-inline-stroke="" style="--darkreader-inline-stroke:#a3a19d;"/><text transform="translate(1517.78898473789, 149) rotate(-60)" fill="#a0a0a0" dominant-baseline="central" text-anchor="end" font-family="Arial Narrow" data-darkreader-inline-fill="" style="--darkreader-inline-fill:#88837c;">N:S235F</text></g></svg></g></svg>